<svg viewBox="0 0 512 512" xml:space="preserve" xmlns="http://www.w3.org/2000/svg" fill-rule="evenodd" clip-rule="evenodd" stroke-linejoin="round" stroke-miterlimit="2"><g display="inline"><path d="M1241.1 4294.09H1506v283.86h-264.9zm-187.1 0h157.1v283.86H1054Zm452-30h-452v-138.14h452zm15-168.14h-482c-8.28 0-15 6.71-15 15v482c0 8.28 6.72 15 15 15h482c8.28 0 15-6.72 15-15v-482c0-8.29-6.72-15-15-15" transform="translate(-1024 -4095.95)" fill-rule="nonzero" fill="#ffffff" class="fill-000000"></path><path d="M0 115.83c-31.934 0-57.914-25.982-57.914-57.92 0-26.745 18.23-49.303 42.914-55.929V57.91c0 8.284 6.716 15 15 15h55.933C49.307 97.598 26.747 115.83 0 115.83m55.932-72.92H15V1.981C34.896 7.322 50.59 23.015 55.932 42.91M0-30c-48.476 0-87.914 39.436-87.914 87.91 0 48.48 39.438 87.92 87.914 87.92s87.913-39.44 87.913-87.92C87.913 9.436 48.476-30 0-30" transform="translate(370.3 293.62)" fill-rule="nonzero" fill="#ffffff" class="fill-000000"></path><path d="M0-32.52c8.965 0 16.259 7.294 16.259 16.26C16.259-7.294 8.965 0 0 0s-16.259-7.294-16.259-16.26c0-8.966 7.294-16.26 16.259-16.26M0 30c25.507 0 46.259-20.752 46.259-46.26S25.507-62.52 0-62.52s-46.259 20.752-46.259 46.26S-25.507 30 0 30" transform="translate(278.9 115.33)" fill-rule="nonzero" fill="#ffffff" class="fill-000000"></path><path d="M0-32.52c8.966 0 16.26 7.294 16.26 16.26C16.26-7.294 8.966 0 0 0c-8.965 0-16.259-7.294-16.259-16.26 0-8.966 7.294-16.26 16.259-16.26M0 30c25.508 0 46.26-20.752 46.26-46.26S25.508-62.52 0-62.52c-25.507 0-46.259 20.752-46.259 46.26S-25.507 30 0 30" transform="translate(401.38 115.33)" fill-rule="nonzero" fill="#ffffff" class="fill-000000"></path><path d="M0 30h58.411c8.284 0 15-6.716 15-15 0-8.284-6.716-15-15-15H0c-8.284 0-15 6.716-15 15 0 8.284 6.716 15 15 15" transform="translate(79.34 280.96)" fill-rule="nonzero" fill="#ffffff" class="fill-000000"></path><path d="M0-30h-58.411c-8.284 0-15 6.716-15 15 0 8.284 6.716 15 15 15H0c8.284 0 15-6.716 15-15 0-8.284-6.716-15-15-15" transform="translate(137.75 366.53)" fill-rule="nonzero" fill="#ffffff" class="fill-000000"></path><path d="M0-30h-58.411c-8.284 0-15 6.716-15 15 0 8.284 6.716 15 15 15H0c8.284 0 15-6.716 15-15 0-8.284-6.716-15-15-15" transform="translate(137.75 422.11)" fill-rule="nonzero" fill="#ffffff" class="fill-000000"></path></g></svg>